<svg xmlns="http://www.w3.org/2000/svg">
    <symbol id="cart" fill="currentColor" class="bi bi-cart2" viewBox="0 0 16 16">
        <path d="M0 2.5A.5.5 0 0 1 .5 2H2a.5.5 0 0 1 .485.379L2.89 4H14.5a.5.5 0 0 1 .485.621l-1.5 6A.5.5 0 0 1 13 11H4a.5.5 0 0 1-.485-.379L1.61 3H.5a.5.5 0 0 1-.5-.5zM3.14 5l1.25 5h8.22l1.25-5H3.14zM5 13a1 1 0 1 0 0 2 1 1 0 0 0 0-2zm-2 1a2 2 0 1 1 4 0 2 2 0 0 1-4 0zm9-1a1 1 0 1 0 0 2 1 1 0 0 0 0-2zm-2 1a2 2 0 1 1 4 0 2 2 0 0 1-4 0z"/>
    </symbol>
    <symbol id="chart" fill="currentColor" class="bi bi-pie-chart" viewBox="0 0 16 16">
        <path d="M7.5 1.018a7 7 0 0 0-4.79 11.566L7.5 7.793V1.018zm1 0V7.5h6.482A7.001 7.001 0 0 0 8.5 1.018zM14.982 8.5H8.207l-4.79 4.79A7 7 0 0 0 14.982 8.5zM0 8a8 8 0 1 1 16 0A8 8 0 0 1 0 8z"></path>
    </symbol>
    <symbol id="box" fill="currentColor" class="bi bi-box-seam" viewBox="0 0 16 16">
        <path d="M8.186 1.113a.5.5 0 0 0-.372 0L1.846 3.5l2.404.961L10.404 2l-2.218-.887zm3.564 1.426L5.596 5 8 5.961 14.154 3.5l-2.404-.961zm3.25 1.7-6.5 2.6v7.922l6.5-2.6V4.24zM7.5 14.762V6.838L1 4.239v7.923l6.5 2.6zM7.443.184a1.5 1.5 0 0 1 1.114 0l7.129 2.852A.5.5 0 0 1 16 3.5v8.662a1 1 0 0 1-.629.928l-7.185 2.874a.5.5 0 0 1-.372 0L.63 13.09a1 1 0 0 1-.63-.928V3.5a.5.5 0 0 1 .314-.464L7.443.184z"/>
    </symbol>
    <symbol id="add-circle" fill="currentColor" class="bi bi-plus-square" viewBox="0 0 16 16">
        <path d="M8 15A7 7 0 1 1 8 1a7 7 0 0 1 0 14zm0 1A8 8 0 1 0 8 0a8 8 0 0 0 0 16z"/>
        <path d="M8 4a.5.5 0 0 1 .5.5v3h3a.5.5 0 0 1 0 1h-3v3a.5.5 0 0 1-1 0v-3h-3a.5.5 0 0 1 0-1h3v-3A.5.5 0 0 1 8 4z"/>
    </symbol>
    <symbol id="settings" fill="currentColor" class="bi bi-gear" viewBox="0 0 16 16">
        <path d="M8 4.754a3.246 3.246 0 1 0 0 6.492 3.246 3.246 0 0 0 0-6.492zM5.754 8a2.246 2.246 0 1 1 4.492 0 2.246 2.246 0 0 1-4.492 0z"/>
        <path d="M9.796 1.343c-.527-1.79-3.065-1.79-3.592 0l-.094.319a.873.873 0 0 1-1.255.52l-.292-.16c-1.64-.892-3.433.902-2.54 2.541l.159.292a.873.873 0 0 1-.52 1.255l-.319.094c-1.79.527-1.79 3.065 0 3.592l.319.094a.873.873 0 0 1 .52 1.255l-.16.292c-.892 1.64.901 3.434 2.541 2.54l.292-.159a.873.873 0 0 1 1.255.52l.094.319c.527 1.79 3.065 1.79 3.592 0l.094-.319a.873.873 0 0 1 1.255-.52l.292.16c1.64.893 3.434-.902 2.54-2.541l-.159-.292a.873.873 0 0 1 .52-1.255l.319-.094c1.79-.527 1.79-3.065 0-3.592l-.319-.094a.873.873 0 0 1-.52-1.255l.16-.292c.893-1.64-.902-3.433-2.541-2.54l-.292.159a.873.873 0 0 1-1.255-.52l-.094-.319zm-2.633.283c.246-.835 1.428-.835 1.674 0l.094.319a1.873 1.873 0 0 0 2.693 1.115l.291-.16c.764-.415 1.6.42 1.184 1.185l-.159.292a1.873 1.873 0 0 0 1.116 2.692l.318.094c.835.246.835 1.428 0 1.674l-.319.094a1.873 1.873 0 0 0-1.115 2.693l.16.291c.415.764-.42 1.6-1.185 1.184l-.291-.159a1.873 1.873 0 0 0-2.693 1.116l-.094.318c-.246.835-1.428.835-1.674 0l-.094-.319a1.873 1.873 0 0 0-2.692-1.115l-.292.16c-.764.415-1.6-.42-1.184-1.185l.159-.291A1.873 1.873 0 0 0 1.945 8.93l-.319-.094c-.835-.246-.835-1.428 0-1.674l.319-.094A1.873 1.873 0 0 0 3.06 4.377l-.16-.292c-.415-.764.42-1.6 1.185-1.184l.292.159a1.873 1.873 0 0 0 2.692-1.115l.094-.319z"/>
    </symbol>
    <symbol id="task-list" fill="currentColor" class="bi bi-check2-circle" viewBox="0 0 16 16">
        <path fill-rule="evenodd"
              d="M2 2.5a.5.5 0 0 0-.5.5v1a.5.5 0 0 0 .5.5h1a.5.5 0 0 0 .5-.5V3a.5.5 0 0 0-.5-.5H2zM3 3H2v1h1V3z"/>
        <path d="M5 3.5a.5.5 0 0 1 .5-.5h9a.5.5 0 0 1 0 1h-9a.5.5 0 0 1-.5-.5zM5.5 7a.5.5 0 0 0 0 1h9a.5.5 0 0 0 0-1h-9zm0 4a.5.5 0 0 0 0 1h9a.5.5 0 0 0 0-1h-9z"/>
        <path fill-rule="evenodd"
              d="M1.5 7a.5.5 0 0 1 .5-.5h1a.5.5 0 0 1 .5.5v1a.5.5 0 0 1-.5.5H2a.5.5 0 0 1-.5-.5V7zM2 7h1v1H2V7zm0 3.5a.5.5 0 0 0-.5.5v1a.5.5 0 0 0 .5.5h1a.5.5 0 0 0 .5-.5v-1a.5.5 0 0 0-.5-.5H2zm1 .5H2v1h1v-1z"/>
    </symbol>
    <symbol id="archive" fill="currentColor" class="bi bi-archive" viewBox="0 0 16 16">
        <path d="M0 2a1 1 0 0 1 1-1h14a1 1 0 0 1 1 1v2a1 1 0 0 1-1 1v7.5a2.5 2.5 0 0 1-2.5 2.5h-9A2.5 2.5 0 0 1 1 12.5V5a1 1 0 0 1-1-1V2zm2 3v7.5A1.5 1.5 0 0 0 3.5 14h9a1.5 1.5 0 0 0 1.5-1.5V5H2zm13-3H1v2h14V2zM5 7.5a.5.5 0 0 1 .5-.5h5a.5.5 0 0 1 0 1h-5a.5.5 0 0 1-.5-.5z"/>
    </symbol>
    <symbol id="calculator" fill="currentColor" class="bi bi-calculator" viewBox="0 0 16 16">
        <path d="M12 1a1 1 0 0 1 1 1v12a1 1 0 0 1-1 1H4a1 1 0 0 1-1-1V2a1 1 0 0 1 1-1h8zM4 0a2 2 0 0 0-2 2v12a2 2 0 0 0 2 2h8a2 2 0 0 0 2-2V2a2 2 0 0 0-2-2H4z"/>
        <path d="M4 2.5a.5.5 0 0 1 .5-.5h7a.5.5 0 0 1 .5.5v2a.5.5 0 0 1-.5.5h-7a.5.5 0 0 1-.5-.5v-2zm0 4a.5.5 0 0 1 .5-.5h1a.5.5 0 0 1 .5.5v1a.5.5 0 0 1-.5.5h-1a.5.5 0 0 1-.5-.5v-1zm0 3a.5.5 0 0 1 .5-.5h1a.5.5 0 0 1 .5.5v1a.5.5 0 0 1-.5.5h-1a.5.5 0 0 1-.5-.5v-1zm0 3a.5.5 0 0 1 .5-.5h1a.5.5 0 0 1 .5.5v1a.5.5 0 0 1-.5.5h-1a.5.5 0 0 1-.5-.5v-1zm3-6a.5.5 0 0 1 .5-.5h1a.5.5 0 0 1 .5.5v1a.5.5 0 0 1-.5.5h-1a.5.5 0 0 1-.5-.5v-1zm0 3a.5.5 0 0 1 .5-.5h1a.5.5 0 0 1 .5.5v1a.5.5 0 0 1-.5.5h-1a.5.5 0 0 1-.5-.5v-1zm0 3a.5.5 0 0 1 .5-.5h1a.5.5 0 0 1 .5.5v1a.5.5 0 0 1-.5.5h-1a.5.5 0 0 1-.5-.5v-1zm3-6a.5.5 0 0 1 .5-.5h1a.5.5 0 0 1 .5.5v1a.5.5 0 0 1-.5.5h-1a.5.5 0 0 1-.5-.5v-1zm0 3a.5.5 0 0 1 .5-.5h1a.5.5 0 0 1 .5.5v4a.5.5 0 0 1-.5.5h-1a.5.5 0 0 1-.5-.5v-4z"/>
    </symbol>
    <symbol id="table" fill="currentColor" class="bi bi-easel" viewBox="0 0 16 16">
        <path d="M8 0a.5.5 0 0 1 .473.337L9.046 2H14a1 1 0 0 1 1 1v7a1 1 0 0 1-1 1h-1.85l1.323 3.837a.5.5 0 1 1-.946.326L11.092 11H8.5v3a.5.5 0 0 1-1 0v-3H4.908l-1.435 4.163a.5.5 0 1 1-.946-.326L3.85 11H2a1 1 0 0 1-1-1V3a1 1 0 0 1 1-1h4.954L7.527.337A.5.5 0 0 1 8 0zM2 3v7h12V3H2z"/>
    </symbol>
    <symbol id="envelope" fill="currentColor" class="bi bi-envelope" viewBox="0 0 16 16">
        <path d="M0 4a2 2 0 0 1 2-2h12a2 2 0 0 1 2 2v8a2 2 0 0 1-2 2H2a2 2 0 0 1-2-2V4zm2-1a1 1 0 0 0-1 1v.217l7 4.2 7-4.2V4a1 1 0 0 0-1-1H2zm13 2.383-4.758 2.855L15 11.114v-5.73zm-.034 6.878L9.271 8.82 8 9.583 6.728 8.82l-5.694 3.44A1 1 0 0 0 2 13h12a1 1 0 0 0 .966-.739zM1 11.114l4.758-2.876L1 5.383v5.73z"/>
    </symbol>
    <symbol id="search" fill="currentColor" class="bi bi-search" viewBox="0 0 16 16">
        <path d="M11.742 10.344a6.5 6.5 0 1 0-1.397 1.398h-.001c.03.04.062.078.098.115l3.85 3.85a1 1 0 0 0 1.415-1.414l-3.85-3.85a1.007 1.007 0 0 0-.115-.1zM12 6.5a5.5 5.5 0 1 1-11 0 5.5 5.5 0 0 1 11 0z"/>
    </symbol>
    <symbol id="door-closed" fill="currentColor" class="bi bi-door-closed" viewBox="0 0 16 16">
        <path d="M3 2a1 1 0 0 1 1-1h8a1 1 0 0 1 1 1v13h1.5a.5.5 0 0 1 0 1h-13a.5.5 0 0 1 0-1H3V2zm1 13h8V2H4v13z"/>
        <path d="M9 9a1 1 0 1 0 2 0 1 1 0 0 0-2 0z"/>
    </symbol>
    <symbol id="caret-right" fill="currentColor" class="bi bi-caret-right" viewBox="0 0 16 16">
        <path d="M6 12.796V3.204L11.481 8 6 12.796zm.659.753 5.48-4.796a1 1 0 0 0 0-1.506L6.66 2.451C6.011 1.885 5 2.345 5 3.204v9.592a1 1 0 0 0 1.659.753z"/>
    </symbol>
    <symbol id="user-circle" fill="currentColor" class="bi bi-person-circle" viewBox="0 0 16 16">
        <path d="M11 6a3 3 0 1 1-6 0 3 3 0 0 1 6 0z"/>
        <path fill-rule="evenodd"
              d="M0 8a8 8 0 1 1 16 0A8 8 0 0 1 0 8zm8-7a7 7 0 0 0-5.468 11.37C3.242 11.226 4.805 10 8 10s4.757 1.225 5.468 2.37A7 7 0 0 0 8 1z"/>
    </symbol>
    <symbol id="bell" fill="currentColor" class="bi bi-bell" viewBox="0 0 16 16">
        <path d="M8 16a2 2 0 0 0 2-2H6a2 2 0 0 0 2 2zM8 1.918l-.797.161A4.002 4.002 0 0 0 4 6c0 .628-.134 2.197-.459 3.742-.16.767-.376 1.566-.663 2.258h10.244c-.287-.692-.502-1.49-.663-2.258C12.134 8.197 12 6.628 12 6a4.002 4.002 0 0 0-3.203-3.92L8 1.917zM14.22 12c.223.447.481.801.78 1H1c.299-.199.557-.553.78-1C2.68 10.2 3 6.88 3 6c0-2.42 1.72-4.44 4.005-4.901a1 1 0 1 1 1.99 0A5.002 5.002 0 0 1 13 6c0 .88.32 4.2 1.22 6z"/>
    </symbol>
</svg>